<svg width="114" height="41" viewBox="0 0 114 41" fill="none" xmlns="http://www.w3.org/2000/svg">
<path d="M1.728 30V12.12H13.608V15H4.992V19.584H13.128V22.464H4.992V27.12H13.608V30H1.728ZM15.7374 30V11.832H18.8814V30H15.7374ZM21.7843 30V16.944H24.9283V30H21.7843ZM21.7843 15.48V12.12H24.9283V15.48H21.7843ZM31.7912 30.288C30.8792 30.288 30.0872 30.136 29.4152 29.832C28.7432 29.528 28.2232 29.096 27.8552 28.536C27.4872 27.96 27.3032 27.296 27.3032 26.544C27.3032 25.824 27.4632 25.184 27.7832 24.624C28.1032 24.048 28.5992 23.568 29.2712 23.184C29.9432 22.8 30.7912 22.528 31.8152 22.368L36.0872 21.672V24.072L32.4152 24.696C31.7912 24.808 31.3272 25.008 31.0232 25.296C30.7192 25.584 30.5672 25.96 30.5672 26.424C30.5672 26.872 30.7352 27.232 31.0712 27.504C31.4232 27.76 31.8552 27.888 32.3672 27.888C33.0232 27.888 33.5992 27.752 34.0952 27.48C34.6072 27.192 34.9992 26.8 35.2712 26.304C35.5592 25.808 35.7032 25.264 35.7032 24.672V21.312C35.7032 20.752 35.4792 20.288 35.0312 19.92C34.5992 19.536 34.0232 19.344 33.3032 19.344C32.6312 19.344 32.0312 19.528 31.5032 19.896C30.9912 20.248 30.6152 20.72 30.3752 21.312L27.8072 20.064C28.0632 19.376 28.4632 18.784 29.0072 18.288C29.5672 17.776 30.2232 17.376 30.9752 17.088C31.7272 16.8 32.5432 16.656 33.4232 16.656C34.4952 16.656 35.4392 16.856 36.2552 17.256C37.0712 17.64 37.7032 18.184 38.1512 18.888C38.6152 19.576 38.8472 20.384 38.8472 21.312V30H35.8712V27.768L36.5432 27.72C36.2072 28.28 35.8072 28.752 35.3432 29.136C34.8792 29.504 34.3512 29.792 33.7592 30C33.1672 30.192 32.5112 30.288 31.7912 30.288ZM41.7531 30V11.832H44.8971V23.736L43.6971 23.376L49.8411 16.944H53.7531L48.9291 22.2L53.8491 30H50.2491L45.9771 23.232L47.8491 22.848L43.9131 27.072L44.8971 25.152V30H41.7531ZM59.5646 30.288C58.6526 30.288 57.8606 30.136 57.1886 29.832C56.5166 29.528 55.9966 29.096 55.6286 28.536C55.2606 27.96 55.0766 27.296 55.0766 26.544C55.0766 25.824 55.2366 25.184 55.5566 24.624C55.8766 24.048 56.3726 23.568 57.0446 23.184C57.7166 22.8 58.5646 22.528 59.5886 22.368L63.8606 21.672V24.072L60.1886 24.696C59.5646 24.808 59.1006 25.008 58.7966 25.296C58.4926 25.584 58.3406 25.96 58.3406 26.424C58.3406 26.872 58.5086 27.232 58.8446 27.504C59.1966 27.76 59.6286 27.888 60.1406 27.888C60.7966 27.888 61.3726 27.752 61.8686 27.48C62.3806 27.192 62.7726 26.8 63.0446 26.304C63.3326 25.808 63.4766 25.264 63.4766 24.672V21.312C63.4766 20.752 63.2526 20.288 62.8046 19.92C62.3726 19.536 61.7966 19.344 61.0766 19.344C60.4046 19.344 59.8046 19.528 59.2766 19.896C58.7646 20.248 58.3886 20.72 58.1486 21.312L55.5806 20.064C55.8366 19.376 56.2366 18.784 56.7806 18.288C57.3406 17.776 57.9966 17.376 58.7486 17.088C59.5006 16.8 60.3166 16.656 61.1966 16.656C62.2686 16.656 63.2126 16.856 64.0286 17.256C64.8446 17.64 65.4766 18.184 65.9246 18.888C66.3886 19.576 66.6206 20.384 66.6206 21.312V30H63.6446V27.768L64.3166 27.72C63.9806 28.28 63.5806 28.752 63.1166 29.136C62.6526 29.504 62.1246 29.792 61.5326 30C60.9406 30.192 60.2846 30.288 59.5646 30.288ZM69.5265 30V16.944H72.4785V19.848L72.2385 19.416C72.5425 18.44 73.0145 17.76 73.6545 17.376C74.3105 16.992 75.0945 16.8 76.0065 16.8H76.7745V19.584H75.6465C74.7505 19.584 74.0305 19.864 73.4865 20.424C72.9425 20.968 72.6705 21.736 72.6705 22.728V30H69.5265ZM82.4631 30.288C81.5511 30.288 80.7591 30.136 80.0871 29.832C79.4151 29.528 78.8951 29.096 78.5271 28.536C78.1591 27.96 77.9751 27.296 77.9751 26.544C77.9751 25.824 78.1351 25.184 78.4551 24.624C78.7751 24.048 79.2711 23.568 79.9431 23.184C80.6151 22.8 81.4631 22.528 82.4871 22.368L86.7591 21.672V24.072L83.0871 24.696C82.4631 24.808 81.9991 25.008 81.6951 25.296C81.3911 25.584 81.2391 25.96 81.2391 26.424C81.2391 26.872 81.4071 27.232 81.7431 27.504C82.0951 27.76 82.5271 27.888 83.0391 27.888C83.6951 27.888 84.2711 27.752 84.7671 27.48C85.2791 27.192 85.6711 26.8 85.9431 26.304C86.2311 25.808 86.3751 25.264 86.3751 24.672V21.312C86.3751 20.752 86.1511 20.288 85.7031 19.92C85.2711 19.536 84.6951 19.344 83.9751 19.344C83.3031 19.344 82.7031 19.528 82.1751 19.896C81.6631 20.248 81.2871 20.72 81.0471 21.312L78.4791 20.064C78.7351 19.376 79.1351 18.784 79.6791 18.288C80.2391 17.776 80.8951 17.376 81.6471 17.088C82.3991 16.8 83.2151 16.656 84.0951 16.656C85.1671 16.656 86.1111 16.856 86.9271 17.256C87.7431 17.64 88.3751 18.184 88.8231 18.888C89.2871 19.576 89.5191 20.384 89.5191 21.312V30H86.5431V27.768L87.2151 27.72C86.8791 28.28 86.4791 28.752 86.0151 29.136C85.5511 29.504 85.0231 29.792 84.4311 30C83.8391 30.192 83.1831 30.288 82.4631 30.288ZM92.4249 30V16.944H95.5689V30H92.4249ZM92.4249 15.48V12.12H95.5689V15.48H92.4249ZM98.4718 30V16.944H101.616V30H98.4718ZM98.4718 15.48V12.12H101.616V15.48H98.4718ZM106.007 30V26.64H109.175V30H106.007Z" fill="#232E35"/>
</svg>
