<svg width="44" height="70" viewBox="0 0 44 70" fill="none" xmlns="http://www.w3.org/2000/svg">
<path d="M19.8121 67.5669C15.9875 64.8051 13.231 60.6623 12.3007 55.8619H0V5.29356C6.58105 8.44998 11.3359 15.3546 11.8528 22.5223L13.7134 36.7262L12.8175 36.6275C10.8536 36.6275 9.13078 38.403 9.13078 40.1456C9.13078 41.7896 10.4401 43.1705 12.1629 43.5322L14.4025 44.0254C18.0893 37.3509 20.1911 30.8079 20.1911 24.3964C20.1911 18.6097 19.3986 12.8229 19.2608 6.90465C19.2608 4.27431 20.3289 1.87412 22.0172 0C23.74 1.87412 24.7737 4.27431 24.7737 6.90465C24.7737 12.8229 23.8434 18.6097 23.8434 24.3964C23.8434 30.8079 25.9452 37.3509 29.6319 44.0254L31.8716 43.5322C33.5944 43.1705 34.9037 41.7567 34.9037 40.1456C34.9037 38.3701 33.1809 36.6275 31.2169 36.6275L30.2866 36.759L32.1472 22.5552C33.0775 15.3875 37.4189 8.44998 44 5.32645V55.8948H31.7337C30.8034 60.6623 28.1848 64.9695 24.2224 67.5998C23.2921 68.2245 22.4996 68.9807 21.9828 70C21.5004 68.9807 20.7079 68.2245 19.8121 67.5669ZM5.82302 38.403C6.33986 36.5289 7.787 34.8849 9.64761 33.8657L8.20047 22.1606C7.68363 18.511 6.09867 15.256 3.72122 12.5928V38.3701H5.82302V38.403ZM12.0251 52.3438C12.0251 50.5683 12.3007 48.9573 12.6797 47.3133L10.9569 46.9187C8.44166 46.1625 6.47768 44.2884 5.82302 41.8882H3.72122V52.3438H12.0251ZM20.1911 52.3438C20.1911 50.2067 18.4683 48.3326 16.2287 48.0695C15.8496 49.4505 15.574 50.8314 15.574 52.3438H20.1911ZM20.1911 55.8948H16.0908C16.7455 58.6566 18.1926 61.1884 20.1911 63.3255V55.8948ZM25.9796 44.946C24.3947 42.1841 22.9475 39.2907 22.0172 36.2659C21.0869 39.2907 19.6398 42.1841 18.0548 44.946C19.6398 45.3077 20.9491 46.3269 22.0172 47.4777C23.0854 46.3269 24.3947 45.3077 25.9796 44.946ZM28.4949 52.3438C28.4949 50.8314 28.2193 49.4505 27.8403 48.0695C25.6006 48.3326 23.8778 50.2067 23.8778 52.3438H28.4949ZM27.9781 55.8948H23.8778V63.3255C25.8763 61.1555 27.3234 58.6566 27.9781 55.8948ZM40.3477 52.3438V41.8882H38.2459C37.5912 44.2884 35.5928 46.1625 33.112 46.9187L31.3892 47.3133C31.7682 48.9573 32.0439 50.5683 32.0439 52.3438H40.3477ZM40.3477 38.403V12.5928C37.9702 15.2231 36.2475 18.511 35.8684 22.1606L34.4213 33.8657C36.2819 34.8849 37.7291 36.496 38.2459 38.403H40.3477Z" fill="#EAC91C"/>
</svg>
